{"title":"Focus.2015.CAM.Rip.XviD-FANTA","uid":11740237,"size":1426256353,"categoryP":"video","categoryS":"movies","magnet":"?xt=urn:btih:55a5af38c0a52bf6b44fc971b888abeda7389f18&amp;dn=Focus.2015.CAM.Rip.XviD-FANTA&amp;tr=udp%3A%2F%2Ftracker.openbittorrent.com%3A80&amp;tr=udp%3A%2F%2Fopen.demonii.com%3A1337&amp;tr=udp%3A%2F%2Ftracker.coppersurfer.tk%3A6969&amp;tr=udp%3A%2F%2Fexodus.desync.com%3A6969","seeders":30,"leechers":4,"uploader":"xxxlavalxxx","files":4,"time":1425757885,"description":" &lt;a href=&quot;http://www.imdb.com/title/tt2381941/&quot; rel=&quot;nofollow&quot; target=&quot;_NEW&quot;&gt;http://www.imdb.com/title/tt2381941/&lt;/a&gt;\n\nIn the midst of veteran con man Nicky's latest scheme, a woman from his past - now an accomplished femme fatale - shows up and throws his plans for a loop.\nDirectors: Glenn Ficarra, John Requa\nWriters: Glenn Ficarra, John Requa\nStars: Will Smith, Margot Robbie, Rodrigo Santoro\nGenres: Comedy | Crime | Drama | Romance\nCountry: USA | Argentina\nLanguage: English\n\nFormat                                   : AVI\nFormat/Info                              : Audio Video Interleave\nFormat profile                           : OpenDML\nFormat settings                          : rec\nFile size                                : 1.31 GiB\nDuration                                 : 1h 38mn\nOverall bit rate                         : 1 897 Kbps\nWriting application                      : AVI-Mux GUI 1.17.8.3, Feb 16 201019:42:50\nVideo\nID                                       : 0\nFormat                                   : MPEG-4 Visual\nFormat profile                           : Advanced Simple@L5\nFormat settings, BVOP                    : 2\nFormat settings, QPel                    : No\nFormat settings, GMC                     : No warppoints\nFormat settings, Matrix                  : Default (H.263)\nMuxing mode                              : Packed bitstream\nCodec ID                                 : XVID\nCodec ID/Hint                            : XviD\nDuration                                 : 1h 38mn\nBit rate                                 : 1 699 Kbps\nWidth                                    : 720 pixels\nHeight                                   : 352 pixels\nDisplay aspect ratio                     : 2.045\nFrame rate                               : 29.970 fps\nColor space                              : YUV\nChroma subsampling                       : 4:2:0\nBit depth                                : 8 bits\nScan type                                : Progressive\nCompression mode                         : Lossy\nBits/(Pixel*Frame)                       : 0.224\nStream size                              : 1.17 GiB (90%)\nWriting library                          : XviD 64\nAudio\nID                                       : 1\nFormat                                   : AC-3\nFormat/Info                              : Audio Coding 3\nMode extension                           : CM (complete main)\nFormat settings, Endianness              : Big\nCodec ID                                 : 2000\nDuration                                 : 1h 38mn\nBit rate mode                            : Constant\nBit rate                                 : 192 Kbps\nChannel(s)                               : 2 channels\nChannel positions                        : Front: L R\nSampling rate                            : 44.1 KHz\nBit depth                                : 16 bits\nCompression mode                         : Lossy\nStream size                              : 136 MiB (10%)\nAlignment                                : Aligned on interleaves\nInterleave, duration                     : 70 ms (2.09 video frames)\nInterleave, preload duration             : 208 ms\n &lt;a href=&quot;\nhttp://i.imgur.com/XV5i6xw.jpg&quot; rel=&quot;nofollow&quot; target=&quot;_NEW&quot;&gt;\nhttp://i.imgur.com/XV5i6xw.jpg&lt;/a&gt; &lt;a href=&quot;\nhttp://i.imgur.com/ysy6gyW.jpg&quot; rel=&quot;nofollow&quot; target=&quot;_NEW&quot;&gt;\nhttp://i.imgur.com/ysy6gyW.jpg&lt;/a&gt; &lt;a href=&quot;\nhttp://i.imgur.com/LTQpM9z.jpg&quot; rel=&quot;nofollow&quot; target=&quot;_NEW&quot;&gt;\nhttp://i.imgur.com/LTQpM9z.jpg&lt;/a&gt; &lt;a href=&quot;\nhttp://i.imgur.com/9ujAstY.jpg&quot; rel=&quot;nofollow&quot; target=&quot;_NEW&quot;&gt;\nhttp://i.imgur.com/9ujAstY.jpg&lt;/a&gt; &lt;a href=&quot;\nhttp://i.imgur.com/XTI7Oy6.jpg&quot; rel=&quot;nofollow&quot; target=&quot;_NEW&quot;&gt;\nhttp://i.imgur.com/XTI7Oy6.jpg&lt;/a&gt; &lt;a href=&quot;\nhttp://i.imgur.com/RKsNsnq.jpg&quot; rel=&quot;nofollow&quot; target=&quot;_NEW&quot;&gt;\nhttp://i.imgur.com/RKsNsnq.jpg&lt;/a&gt; &lt;a href=&quot;\nhttp://i.imgur.com/AIJZkof.jpg&quot; rel=&quot;nofollow&quot; target=&quot;_NEW&quot;&gt;\nhttp://i.imgur.com/AIJZkof.jpg&lt;/a&gt; &lt;a href=&quot;\nhttp://i.imgur.com/l75qwUI.jpg&quot; rel=&quot;nofollow&quot; target=&quot;_NEW&quot;&gt;\nhttp://i.imgur.com/l75qwUI.jpg&lt;/a&gt; &lt;a href=&quot;\nhttp://i.imgur.com/ilz8TNm.jpg&quot; rel=&quot;nofollow&quot; target=&quot;_NEW&quot;&gt;\nhttp://i.imgur.com/ilz8TNm.jpg&lt;/a&gt; &lt;a href=&quot;\nhttp://i.imgur.com/9iVaLQK.jpg&quot; rel=&quot;nofollow&quot; target=&quot;_NEW&quot;&gt;\nhttp://i.imgur.com/9iVaLQK.jpg&lt;/a&gt; &lt;a href=&quot;\nhttp://i.imgur.com/3oRROTV.jpg&quot; rel=&quot;nofollow&quot; target=&quot;_NEW&quot;&gt;\nhttp://i.imgur.com/3oRROTV.jpg&lt;/a&gt;","torrent":{"xt":"urn:btih:55a5af38c0a52bf6b44fc971b888abeda7389f18","amp;dn":"Focus.2015.CAM.Rip.XviD-FANTA","amp;tr":["udp%3A%2F%2Ftracker.openbittorrent.com%3A80","udp%3A%2F%2Fopen.demonii.com%3A1337","udp%3A%2F%2Ftracker.coppersurfer.tk%3A6969","udp%3A%2F%2Fexodus.desync.com%3A6969"],"infoHash":"55a5af38c0a52bf6b44fc971b888abeda7389f18","infoHashBuffer":{"type":"Buffer","data":[85,165,175,56,192,165,43,246,180,79,201,113,184,136,171,237,167,56,159,24]},"announce":[],"urlList":[]}}